<?xml version="1.0" encoding="UTF-8" standalone="no"?>
<svg width="78px" height="40px" viewBox="0 0 78 40" version="1.1" xmlns="http://www.w3.org/2000/svg" xmlns:xlink="http://www.w3.org/1999/xlink" xmlns:sketch="http://www.bohemiancoding.com/sketch/ns">
    <!-- Generator: Sketch 3.3.3 (12081) - http://www.bohemiancoding.com/sketch -->
    <title>Imported Layers Copy 3</title>
    <desc>Created with Sketch.</desc>
    <defs></defs>
    <g id="Page-1" stroke="none" stroke-width="1" fill="none" fill-rule="evenodd" sketch:type="MSPage">
        <g id="Styles" sketch:type="MSArtboardGroup" transform="translate(-288.000000, -4746.000000)" fill="#FFFFFF">
            <g id="Footer" sketch:type="MSLayerGroup" transform="translate(108.000000, 4710.138951)">
                <g transform="translate(140.000000, 0.000000)" id="Group" sketch:type="MSShapeGroup">
                    <g>
                        <g id="Imported-Layers-Copy-3" transform="translate(40.000000, 36.000000)">
                            <path d="M3.27596663,25.1851852 L74.6799655,25.1851852 L74.6799655,25.9259259 L3.27596663,25.9259259 L3.27596663,25.1851852 Z" id="Fill-1"></path>
                            <path d="M20.5242117,38.8439506 C19.9205293,39.4925926 19.1439068,39.7698765 18.2821749,39.7698765 C17.4194534,39.7698765 16.6438205,39.4925926 16.0401381,38.9365432 C15.2637629,38.1037037 15.2637629,37.2698765 15.2637629,35.4190123 C15.2637629,33.6597531 15.2637629,32.8254321 16.0401381,31.9928395 C16.6438205,31.437037 17.4194534,31.1597531 18.2821749,31.1597531 C19.9205293,31.1597531 21.0410529,32.1780247 21.2995972,33.6597531 L20.3517664,33.6597531 C20.0924799,32.6412346 19.316847,31.9 18.2821749,31.9 C17.6784925,31.9 17.1611565,32.1780247 16.8160184,32.5481481 C16.2986824,33.1037037 16.2118412,33.6597531 16.2118412,35.4190123 C16.2118412,37.2698765 16.2986824,37.8259259 16.8160184,38.3814815 C17.1611565,38.7518519 17.6784925,39.0296296 18.2821749,39.0296296 C18.8856099,39.0296296 19.4892923,38.7518519 19.9205293,38.2888889 C20.2656674,37.8259259 20.3517664,37.3624691 20.3517664,36.714321 L20.3517664,36.0666667 L18.2821749,36.0666667 L18.2821749,35.2333333 L21.2995972,35.2333333 L21.2995972,36.6222222 C21.2995972,37.6407407 21.1278941,38.2888889 20.5242117,38.8439506" id="Fill-2"></path>
                            <path d="M30.9585155,39.7698765 L29.0628539,35.9735802 L26.9912831,35.9735802 L26.9912831,39.7698765 L26.04271,39.7698765 L26.04271,31.1597531 L29.3206559,31.1597531 C30.8721692,31.1597531 31.9070886,32.0854321 31.9070886,33.5666667 C31.9070886,34.862963 31.1309609,35.6039506 30.0092002,35.8814815 L32.0805236,39.7698765 L30.9585155,39.7698765 L30.9585155,39.7698765 Z M29.2330725,31.9928395 L26.9912831,31.9928395 L26.9912831,35.1412346 L29.2330725,35.1412346 C30.2689816,35.1412346 30.9585155,34.5846914 30.9585155,33.5666667 C30.9585155,32.5481481 30.2689816,31.9928395 29.2330725,31.9928395 L29.2330725,31.9928395 Z" id="Fill-3"></path>
                            <path d="M41.4794131,38.9365432 C40.8759781,39.4925926 40.0998504,39.7698765 39.3237227,39.7698765 C38.375397,39.7698765 37.6853682,39.4925926 37.081191,38.9365432 C36.3058055,38.1037037 36.3058055,37.2698765 36.3058055,35.4190123 C36.3058055,33.6597531 36.3058055,32.8254321 37.081191,31.9928395 C37.6853682,31.437037 38.375397,31.1597531 39.3237227,31.1597531 C40.0998504,31.1597531 40.8759781,31.437037 41.4794131,31.9928395 C42.2560357,32.8254321 42.2560357,33.6597531 42.2560357,35.4190123 C42.2560357,37.2698765 42.2560357,38.1037037 41.4794131,38.9365432 L41.4794131,38.9365432 Z M40.7898792,32.5481481 C40.3583947,32.1780247 39.8413061,31.9 39.3237227,31.9 C38.7200403,31.9 38.2024568,32.1780247 37.771962,32.5481481 C37.2541312,33.1037037 37.1682796,33.6597531 37.1682796,35.4190123 C37.1682796,37.2698765 37.2541312,37.8259259 37.771962,38.3814815 C38.2024568,38.7518519 38.7200403,39.0296296 39.3237227,39.0296296 C39.8413061,39.0296296 40.3583947,38.7518519 40.7898792,38.3814815 C41.3074626,37.8259259 41.3935616,37.2698765 41.3935616,35.4190123 C41.3935616,33.6597531 41.3074626,33.1037037 40.7898792,32.5481481 L40.7898792,32.5481481 Z" id="Fill-4"></path>
                            <path d="M49.9304718,39.7698765 C48.2070081,39.7698765 46.9123072,38.6582716 46.9123072,36.9 L46.9123072,31.1597531 L47.8608803,31.1597531 L47.8608803,36.8074074 C47.8608803,38.1037037 48.7245915,39.0296296 49.9304718,39.0296296 C51.2251726,39.0296296 52.0008055,38.1037037 52.0008055,36.8074074 L52.0008055,31.1597531 L52.9488838,31.1597531 L52.9488838,36.9 C52.9488838,38.6582716 51.6566571,39.7698765 49.9304718,39.7698765" id="Fill-5"></path>
                            <path d="M61.141893,36.2518519 L58.8127675,36.2518519 L58.8127675,39.7698765 L57.9512831,39.7698765 L57.9512831,31.1597531 L61.141893,31.1597531 C62.693901,31.1597531 63.8151669,32.1780247 63.8151669,33.6597531 C63.8151669,35.2333333 62.693901,36.2518519 61.141893,36.2518519 L61.141893,36.2518519 Z M61.0552992,31.9928395 L58.8127675,31.9928395 L58.8127675,35.4190123 L61.0552992,35.4190123 C62.0899712,35.4190123 62.8656041,34.862963 62.8656041,33.6597531 C62.8656041,32.5481481 62.0899712,31.9928395 61.0552992,31.9928395 L61.0552992,31.9928395 Z" id="Fill-6"></path>
                            <path d="M76.6030898,4.25728395 C75.8608573,4.25728395 75.2559379,3.65728395 75.2559379,2.91382716 C75.2559379,2.17283951 75.8608573,1.56938272 76.6030898,1.56938272 C77.3482911,1.56938272 77.9507365,2.17283951 77.9507365,2.91382716 C77.9507365,3.65728395 77.3482911,4.25728395 76.6030898,4.25728395 L76.6030898,4.25728395 Z M76.6030898,1.76716049 C75.9788723,1.76716049 75.4729171,2.28246914 75.4729171,2.91382716 C75.4729171,3.54395062 75.9788723,4.05925926 76.6030898,4.05925926 C77.2287917,4.05925926 77.7411795,3.54395062 77.7411795,2.91382716 C77.7411795,2.28246914 77.2287917,1.76716049 76.6030898,1.76716049 L76.6030898,1.76716049 Z" id="Fill-7"></path>
                            <path d="M76.9306617,3.65012346 L76.5939356,3.04666667 L76.370771,3.04666667 L76.370771,3.65012346 L76.1659148,3.65012346 L76.1659148,2.17679012 L76.6679114,2.17679012 C76.9234868,2.17679012 77.1332911,2.36790123 77.1332911,2.61876543 C77.1332911,2.83061728 77.0004315,2.96518519 76.8180898,3.02123457 L77.1689183,3.65012346 L76.9306617,3.65012346 L76.9306617,3.65012346 Z M76.6451496,2.35555556 L76.370771,2.35555556 L76.370771,2.87604938 L76.6451496,2.87604938 C76.8099252,2.87604938 76.9234868,2.76469136 76.9234868,2.61876543 C76.9234868,2.46938272 76.8099252,2.35555556 76.6451496,2.35555556 L76.6451496,2.35555556 Z" id="Fill-8"></path>
                            <path d="M30.9246203,0 L34.2124626,0 L34.2124626,3.27753086 L30.9246203,3.27753086 L30.9246203,0 Z M6.87381473,18.0476543 C3.10822209,18.0476543 0,14.9446914 0,11.1896296 C0,7.38197531 3.10822209,4.36765432 6.87381473,4.36765432 C8.32166283,4.36765432 9.67994822,4.76197531 10.8205121,5.54691358 L10.8205121,4.49432099 L14.0596145,4.49432099 L14.0596145,17.74 L10.8205121,17.74 L10.8205121,16.862963 C9.71903913,17.6101235 8.36644419,18.0476543 6.87381473,18.0476543 L6.87381473,18.0476543 Z M3.14756041,11.1896296 C3.14756041,13.2402469 4.90467204,14.9446914 6.96510932,14.9446914 C9.0643901,14.9446914 10.8205121,13.2402469 10.8205121,11.1896296 C10.8205121,9.13530864 9.0643901,7.38197531 6.96510932,7.38197531 C4.90467204,7.38197531 3.14756041,9.13530864 3.14756041,11.1896296 L3.14756041,11.1896296 Z M22.1200115,18.0476543 C18.3106272,18.0476543 15.1917664,14.9446914 15.1917664,11.1896296 C15.1917664,7.38197531 18.3106272,4.36765432 22.1200115,4.36765432 C23.5693441,4.36765432 24.8796318,4.76197531 26.0248964,5.54691358 L26.0248964,0 L29.3045742,0 L29.3045742,17.74 L26.0248964,17.74 L26.0248964,16.862963 C24.8796318,17.6101235 23.5693441,18.0476543 22.1200115,18.0476543 L22.1200115,18.0476543 Z M18.348481,11.1896296 C18.348481,13.2402469 20.1001496,14.9446914 22.2038838,14.9446914 C24.2705063,14.9446914 26.0248964,13.2402469 26.0248964,11.1896296 C26.0248964,9.13530864 24.2705063,7.38197531 22.2038838,7.38197531 C20.1001496,7.38197531 18.348481,9.13530864 18.348481,11.1896296 L18.348481,11.1896296 Z M30.9246203,4.49432099 L34.2124626,4.49432099 L34.2124626,17.74 L30.9246203,17.74 L30.9246203,4.49432099 Z M46.3326237,0 L49.5811277,0 L49.5811277,17.74 L46.3326237,17.74 L46.3326237,16.862963 C45.2447583,17.6101235 43.8825144,18.0476543 42.3938435,18.0476543 C38.6304776,18.0476543 35.5227503,14.9446914 35.5227503,11.1896296 C35.5227503,7.38197531 38.6304776,4.36765432 42.3938435,4.36765432 C43.8825144,4.36765432 45.2046778,4.76197531 46.3326237,5.54691358 L46.3326237,0 L46.3326237,0 Z M38.7230092,11.1896296 C38.7230092,13.2402469 40.4709666,14.9446914 42.4841484,14.9446914 C44.5856559,14.9446914 46.3326237,13.2402469 46.3326237,11.1896296 C46.3326237,9.13530864 44.5856559,7.38197531 42.4841484,7.38197531 C40.4709666,7.38197531 38.7230092,9.13530864 38.7230092,11.1896296 L38.7230092,11.1896296 Z M57.5472612,18.0476543 C53.7910702,18.0476543 50.6751784,14.9446914 50.6751784,11.1896296 C50.6751784,7.38197531 53.7910702,4.36765432 57.5472612,4.36765432 C58.9953567,4.36765432 60.3546318,4.76197531 61.4506617,5.54691358 L61.4506617,4.49432099 L64.7333084,4.49432099 L64.7333084,17.74 L61.4506617,17.74 L61.4506617,16.862963 C60.3546318,17.6101235 59.0510242,18.0476543 57.5472612,18.0476543 L57.5472612,18.0476543 Z M53.8751899,11.1896296 C53.8751899,13.2402469 55.625374,14.9446914 57.6853165,14.9446914 C59.7482278,14.9446914 61.4506617,13.2402469 61.4506617,11.1896296 C61.4506617,9.13530864 59.7482278,7.38197531 57.6853165,7.38197531 C55.625374,7.38197531 53.8751899,9.13530864 53.8751899,11.1896296 L53.8751899,11.1896296 Z M72.005702,18.0476543 C68.3289298,18.0476543 66.1373648,16.1716049 66.0045052,13.5061728 L69.4682566,13.5061728 C69.4682566,14.3348148 69.9912831,15.5558025 72.2256502,15.6014815 C73.71729,15.6014815 74.4144937,14.7308642 74.4144937,14.0730864 C74.3321059,13.0219753 73.0094476,12.9333333 71.6061335,12.7128395 C70.2072727,12.4953086 69.027618,12.2325926 68.149557,11.7950617 C67.0584753,11.2281481 66.3147583,10.0118519 66.3147583,8.6054321 C66.3147583,6.24765432 68.3685155,4.36765432 71.7862486,4.36765432 C75.1156559,4.36765432 77.2206272,6.11703704 77.4351323,8.69283951 L74.1101784,8.69283951 C74.0639125,7.99333333 73.9327848,6.90296296 71.9606732,6.90296296 C70.648901,6.90296296 69.7765305,7.16419753 69.6837514,8.0782716 C69.6837514,9.44246914 72.4441139,9.35358025 74.5918872,9.91703704 C76.6515823,10.4441975 77.957664,11.7071605 77.957664,13.5061728 C77.957664,16.7797531 75.2900806,18.0476543 72.005702,18.0476543 L72.005702,18.0476543 Z" id="Fill-9"></path>
                        </g>
                    </g>
                </g>
            </g>
        </g>
    </g>
</svg>